<?xml version="1.0" standalone="no"?><!DOCTYPE svg PUBLIC "-//W3C//DTD SVG 1.1//EN" "http://www.w3.org/Graphics/SVG/1.1/DTD/svg11.dtd"><svg class="icon" width="200px" height="200.00px" viewBox="0 0 1024 1024" version="1.1" xmlns="http://www.w3.org/2000/svg"><path fill="#2c2c2c" d="M649.856 685.056l44.672-45.824c-52.8-53.696-117.056-83.2-183.488-83.2-65.664 0-129.152 28.8-181.568 81.28l44.672 45.824c42.432-42.88 90.88-63.04 136.896-63.04 46.72 0 95.872 20.8 138.816 64.96zM779.392 552.128l44.736-45.824c-87.936-90.56-198.4-140.672-313.024-140.672-113.856 0-223.616 49.408-311.232 138.752l44.736 45.824c77.248-79.36 171.648-120.576 266.496-120.576 95.552 0 190.72 41.92 268.288 122.496z"  fill-opacity=".9" /><path fill="#2c2c2c" d="M904.512 423.872l44.736-45.888C827.52 252.16 672.192 182.4 511.104 182.4c-160.384 0-314.88 69.12-436.288 193.792l44.672 45.824C230.336 307.584 369.28 246.336 511.104 246.336c142.464 0 282.24 61.888 393.408 177.536zM576 800a64 64 0 1 1-128 0 64 64 0 0 1 128 0z"  fill-opacity=".9" /></svg>