<?xml version="1.0" standalone="no"?><!DOCTYPE svg PUBLIC "-//W3C//DTD SVG 1.1//EN" "http://www.w3.org/Graphics/SVG/1.1/DTD/svg11.dtd"><svg class="icon" width="200px" height="200.00px" viewBox="0 0 1024 1024" version="1.1" xmlns="http://www.w3.org/2000/svg"><path fill="#d81e06" d="M952.781955 136.661654C869.373434-45.553885 154.626566-45.553885 71.218045 136.661654a31.438596 31.438596 0 0 0-8.340852 21.172932v705.764411a31.438596 31.438596 0 0 0 8.340852 21.172933C112.922306 976.521303 313.102757 1024 512 1024s399.077694-47.478697 440.781955-139.22807a31.438596 31.438596 0 0 0 8.340852-21.172933v-705.764411a31.438596 31.438596 0 0 0-8.340852-21.172932zM896.962406 621.072682c0 45.553885-150.135338 110.997494-384.962406 110.997493s-384.962406-64.160401-384.962406-110.997493V489.54386a786.606516 786.606516 0 0 0 384.962406 80.842105 786.606516 786.606516 0 0 0 384.962406-80.842105z m0-225.844612c0 45.553885-150.135338 110.997494-384.962406 110.997494S127.037594 440.140351 127.037594 395.22807v-128.320802a786.606516 786.606516 0 0 0 384.962406 80.842105 786.606516 786.606516 0 0 0 384.962406-80.842105zM512 61.593985c234.827068 0 384.962406 64.160401 384.962406 110.997494s-150.135338 110.997494-384.962406 110.997493-384.962406-64.160401-384.962406-110.997493S277.172932 61.593985 512 61.593985z m0 898.245614c-234.827068 0-384.962406-64.160401-384.962406-110.997494v-133.453634a787.24812 787.24812 0 0 0 384.962406 80.842105 787.24812 787.24812 0 0 0 384.962406-80.842105v133.453634c0 46.837093-150.135338 110.997494-384.962406 110.997494z"  /></svg>